<svg xmlns="http://www.w3.org/2000/svg" width="117" height="22">
    <path fill="#151515" fill-rule="evenodd" d="M117 21.999h-6l-5-6.874-5 6.874h-6l8-11L95 0h6l5 6.874L111 0h6l-8 10.999 8 11zM76 0h15v4H81v5h9v4h-9v5h10v3.999H76V0zM50 0l14 11V0h5v21.999l-19-16V0zM33 21.999c-6.075 0-11-4.924-11-10.999 0-.666.069-1.316.183-1.949l5.726 5.09C28.966 15.851 30.842 17 33 17c3.314 0 6-2.686 6-6s-2.686-6-6-6c-2.244 0-4.176 1.246-5.206 3.07l-3.822-3.345C25.959 1.871 29.259 0 33 0c6.075 0 11 4.925 11 11s-4.925 10.999-11 10.999zM17 18v3.999H0l10-16H1V1h17L8 18h9zm38 3.999h-5V12l5 3v6.999z"/>
</svg>
