<svg xmlns="http://www.w3.org/2000/svg" width="16" height="16">
    <path fill="#151515" fill-rule="evenodd" d="M13.633 15.773c.182-.151.299-.341.351-.57l2-10c.032-.146.026-.291-.015-.437-.042-.146-.11-.276-.203-.391-.094-.125-.209-.219-.344-.281C15.286 4.031 15.146 4 15 4h-2c-.271 0-.505.099-.703.297-.198.198-.297.432-.297.703 0 .271.099.505.297.703.198.198.432.297.703.297h.781l-1.593 8H3.813L2.219 6H3c.271 0 .505-.099.703-.297C3.901 5.505 4 5.271 4 5c0-.271-.099-.505-.297-.703C3.505 4.099 3.271 4 3 4H1c-.146 0-.287.034-.422.102-.135.068-.25.159-.344.273-.093.115-.161.245-.203.391-.041.146-.047.291-.015.437l2 10c.052.229.169.419.351.57.182.151.393.227.633.227h10c.239 0 .45-.076.633-.227zm-2.93-9.07C10.505 6.901 10.271 7 10 7c-.271 0-.505-.099-.703-.297C9.099 6.505 9 6.271 9 6V3c0-.271-.099-.505-.297-.703C8.505 2.099 8.271 2 8 2c-.271 0-.505.099-.703.297C7.099 2.495 7 2.729 7 3v3c0 .271-.099.505-.297.703C6.505 6.901 6.271 7 6 7c-.271 0-.505-.099-.703-.297C5.099 6.505 5 6.271 5 6V3c0-.833.294-1.542.883-2.125C6.471.292 7.177 0 8 0s1.529.294 2.117.883C10.706 1.472 11 2.177 11 3v3c0 .271-.099.505-.297.703z"/>
</svg>
