<svg xmlns="http://www.w3.org/2000/svg" width="17" height="17">
    <path fill="#151515" fill-rule="evenodd" d="M14.09 10.809c.573.5 1.065 1.065 1.476 1.695.412.63.732 1.315.961 2.055.229.739.344 1.51.344 2.312h-16c0-.802.115-1.573.344-2.312.229-.74.549-1.425.961-2.055.411-.63.903-1.195 1.476-1.695.584-.501 1.224-.912 1.922-1.235-.5-.448-.909-.989-1.226-1.625-.318-.635-.477-1.328-.477-2.078 0-.698.13-1.354.391-1.969.26-.604.614-1.13 1.062-1.578.448-.447.974-.802 1.578-1.062.615-.26 1.271-.391 1.969-.391.698 0 1.354.131 1.969.391.604.26 1.13.615 1.578 1.062.448.448.802.974 1.062 1.578.261.615.391 1.271.391 1.969 0 .75-.159 1.443-.476 2.078-.318.636-.727 1.177-1.227 1.625.698.323 1.338.734 1.922 1.235zM6.73 8.012c.573.573 1.287.859 2.141.859.854 0 1.568-.286 2.141-.859s.859-1.287.859-2.141c0-.854-.286-1.567-.859-2.141-.573-.572-1.287-.859-2.141-.859-.854 0-1.568.287-2.141.859-.573.574-.859 1.287-.859 2.141 0 .854.286 1.568.859 2.141zm-3.453 6.859h11.297c-.229-.573-.531-1.104-.906-1.594-.375-.489-.81-.911-1.305-1.265-.495-.354-1.039-.636-1.633-.844-.593-.198-1.213-.297-1.859-.297-.646 0-1.265.099-1.859.297-.594.208-1.133.49-1.617.844-.485.354-.909.776-1.274 1.265-.365.49-.646 1.021-.844 1.594z"/>
</svg>
